<svg xmlns="http://www.w3.org/2000/svg" viewBox="0 0 32 32" width="512" height="512">
  <defs>
    <linearGradient id="tg" x1="0" y1="0" x2="1" y2="0">
      <stop offset="0%"   stop-color="#6366F1"/>
      <stop offset="68%"  stop-color="#A855F7"/>
      <stop offset="100%" stop-color="#F43F5E"/>
    </linearGradient>
    <linearGradient id="bg" x1="0" y1="0" x2="0" y2="1">
      <stop offset="0%"   stop-color="#1C1B35"/>
      <stop offset="100%" stop-color="#0D0C1E"/>
    </linearGradient>
    <mask id="tm">
      <rect x="2" y="8" width="28" height="16" rx="2.5" fill="white"/>
      <circle cx="21" cy="8"  r="3" fill="black"/>
      <circle cx="21" cy="24" r="3" fill="black"/>
    </mask>
  </defs>
  <rect width="32" height="32" rx="7" fill="url(#bg)"/>
  <rect width="32" height="13" rx="7" fill="white" fill-opacity="0.06"/>
  <rect x="2" y="8" width="28" height="16" rx="2.5" fill="url(#tg)" mask="url(#tm)"/>
  <line x1="21" y1="11" x2="21" y2="21"
        stroke="white" stroke-opacity="0.42"
        stroke-width=".75" stroke-dasharray="1.5,1.2" stroke-linecap="round"/>
  <g fill="white" fill-opacity="0.92" transform="translate(5.25,11.5)">
    <rect x="0"   y="0"   width="1.6" height="9"   rx=".5"/>
    <rect x="3.9" y="0"   width="1.6" height="9"   rx=".5"/>
    <polygon points="1.6,0 3.1,0 5.5,9 3.9,9"/>
    <rect x="7.5" y="0"   width="5"   height="1.6" rx=".5"/>
    <rect x="9.2" y="1.6" width="1.6" height="7.4" rx=".5"/>
  </g>
</svg>